<?xml version="1.0" encoding="UTF-8" standalone="no"?><!DOCTYPE svg PUBLIC "-//W3C//DTD SVG 1.1//EN" "http://www.w3.org/Graphics/SVG/1.1/DTD/svg11.dtd"><!-- Generated by graphviz version 2.40.1 (20161225.0304)
 --><!-- Title: %0 Pages: 1 --><svg xmlns="http://www.w3.org/2000/svg" xmlns:xlink="http://www.w3.org/1999/xlink" width="1352pt" height="310pt" viewBox="0.00 0.00 1352.11 310.40">
<g id="graph0" class="graph" transform="scale(1 1) rotate(0) translate(4 306.4)">
<title>%0</title>
<polygon fill="#ffffff" stroke="transparent" points="-4,4 -4,-306.4 1348.1095,-306.4 1348.1095,4 -4,4"/>
<!-- Austin -->
<g id="node1" class="node">
<title>Austin</title>
<ellipse fill="none" stroke="#000000" cx="724.6095" cy="-195.6" rx="36.5767" ry="18"/>
<text text-anchor="middle" x="724.6095" y="-191.4" font-family="Times,serif" font-size="14.00" fill="#000000">Austin</text>
</g>
<!-- Houston -->
<g id="node4" class="node">
<title>Houston</title>
<ellipse fill="none" stroke="#000000" cx="681.6095" cy="-106.8" rx="43.5233" ry="18"/>
<text text-anchor="middle" x="681.6095" y="-102.6" font-family="Times,serif" font-size="14.00" fill="#000000">Houston</text>
</g>
<!-- Austin&#45;&#45;Houston -->
<g id="edge1" class="edge">
<title>Austin--Houston</title>
<path fill="none" stroke="#000000" d="M717.854,-177.7363C713.7688,-167.3817 708.2688,-154.1817 702.6095,-142.8 699.5812,-136.7098 695.9455,-130.2384 692.5567,-124.4867"/>
<text text-anchor="middle" x="726.3595" y="-147" font-family="Times,serif" font-size="14.00" fill="#000000">162.3</text>
</g>
<!-- Corpus Christi -->
<g id="node5" class="node">
<title>Corpus Christi</title>
<ellipse fill="none" stroke="#000000" cx="1079.6095" cy="-106.8" rx="67.7739" ry="18"/>
<text text-anchor="middle" x="1079.6095" y="-102.6" font-family="Times,serif" font-size="14.00" fill="#000000">Corpus Christi</text>
</g>
<!-- Austin&#45;&#45;Corpus Christi -->
<g id="edge2" class="edge">
<title>Austin--Corpus Christi</title>
<path fill="none" stroke="#000000" d="M760.1298,-190.4015C799.0809,-184.3707 863.2793,-173.4577 917.6095,-159.6 940.5402,-153.7512 998.0888,-134.5884 1038.0255,-121.0388"/>
<text text-anchor="middle" x="988.8595" y="-147" font-family="Times,serif" font-size="14.00" fill="#000000">171.89</text>
</g>
<!-- Amarillo -->
<g id="node6" class="node">
<title>Amarillo</title>
<ellipse fill="none" stroke="#000000" cx="505.6095" cy="-106.8" rx="45.8022" ry="18"/>
<text text-anchor="middle" x="505.6095" y="-102.6" font-family="Times,serif" font-size="14.00" fill="#000000">Amarillo</text>
</g>
<!-- Austin&#45;&#45;Amarillo -->
<g id="edge3" class="edge">
<title>Austin--Amarillo</title>
<path fill="none" stroke="#000000" d="M698.7765,-182.7234C686.6878,-176.3139 672.3015,-168.1233 660.1095,-159.6 650.7338,-153.0456 650.7911,-148.0149 640.6095,-142.8 610.0988,-127.1728 598.7061,-133.7286 565.6095,-124.8 557.8395,-122.7039 549.5481,-120.3155 541.686,-117.9791"/>
<text text-anchor="middle" x="679.8595" y="-147" font-family="Times,serif" font-size="14.00" fill="#000000">415.32</text>
</g>
<!-- San Marcos -->
<g id="node7" class="node">
<title>San Marcos</title>
<ellipse fill="none" stroke="#000000" cx="1222.6095" cy="-106.8" rx="56.7814" ry="18"/>
<text text-anchor="middle" x="1222.6095" y="-102.6" font-family="Times,serif" font-size="14.00" fill="#000000">San Marcos</text>
</g>
<!-- Austin&#45;&#45;San Marcos -->
<g id="edge4" class="edge">
<title>Austin--San Marcos</title>
<path fill="none" stroke="#000000" d="M760.5605,-191.5947C826.458,-184.1692 964.1816,-168.2385 1011.6095,-159.6 1076.8112,-147.7242 1092.4101,-141.2543 1156.6095,-124.8 1164.0877,-122.8833 1172.0233,-120.7795 1179.7019,-118.7072"/>
<text text-anchor="middle" x="1102.3595" y="-147" font-family="Times,serif" font-size="14.00" fill="#000000">29.29</text>
</g>
<!-- Wichita Falls -->
<g id="node8" class="node">
<title>Wichita Falls</title>
<ellipse fill="none" stroke="#000000" cx="78.6095" cy="-106.8" rx="62.5942" ry="18"/>
<text text-anchor="middle" x="78.6095" y="-102.6" font-family="Times,serif" font-size="14.00" fill="#000000">Wichita Falls</text>
</g>
<!-- Austin&#45;&#45;Wichita Falls -->
<g id="edge5" class="edge">
<title>Austin--Wichita Falls</title>
<path fill="none" stroke="#000000" d="M687.627,-194.7365C612.1766,-192.4938 435.2745,-184.7743 289.1095,-159.6 260.3398,-154.6449 253.916,-149.9403 225.6095,-142.8 192.3707,-134.4156 183.9047,-132.9571 150.6095,-124.8 142.6001,-122.8378 134.0954,-120.7316 125.8437,-118.6762"/>
<text text-anchor="middle" x="308.8595" y="-147" font-family="Times,serif" font-size="14.00" fill="#000000">255.29</text>
</g>
<!-- Baytown -->
<g id="node9" class="node">
<title>Baytown</title>
<ellipse fill="none" stroke="#000000" cx="761.6095" cy="-18" rx="45.8079" ry="18"/>
<text text-anchor="middle" x="761.6095" y="-13.8" font-family="Times,serif" font-size="14.00" fill="#000000">Baytown</text>
</g>
<!-- Austin&#45;&#45;Baytown -->
<g id="edge6" class="edge">
<title>Austin--Baytown</title>
<path fill="none" stroke="#000000" d="M736.622,-178.3523C740.0678,-172.6241 743.468,-166.0556 745.6095,-159.6 759.708,-117.0984 761.8686,-63.9118 761.9245,-36.3958"/>
<text text-anchor="middle" x="778.8595" y="-102.6" font-family="Times,serif" font-size="14.00" fill="#000000">169.48</text>
</g>
<!-- College Station -->
<g id="node10" class="node">
<title>College Station</title>
<ellipse fill="none" stroke="#000000" cx="444.6095" cy="-18" rx="70.7036" ry="18"/>
<text text-anchor="middle" x="444.6095" y="-13.8" font-family="Times,serif" font-size="14.00" fill="#000000">College Station</text>
</g>
<!-- Austin&#45;&#45;College Station -->
<g id="edge7" class="edge">
<title>Austin--College Station</title>
<path fill="none" stroke="#000000" d="M689.3724,-189.9763C654.2436,-183.7342 603.4437,-172.7818 588.6095,-159.6 563.3149,-137.1233 582.4009,-114.6872 560.6095,-88.8 539.6416,-63.8911 507.5714,-45.2635 482.4617,-33.3833"/>
<text text-anchor="middle" x="589.3595" y="-102.6" font-family="Times,serif" font-size="14.00" fill="#000000">87.79</text>
</g>
<!-- El Paso -->
<g id="node11" class="node">
<title>El Paso</title>
<ellipse fill="none" stroke="#000000" cx="858.6095" cy="-106.8" rx="40.0471" ry="18"/>
<text text-anchor="middle" x="858.6095" y="-102.6" font-family="Times,serif" font-size="14.00" fill="#000000">El Paso</text>
</g>
<!-- Austin&#45;&#45;El Paso -->
<g id="edge8" class="edge">
<title>Austin--El Paso</title>
<path fill="none" stroke="#000000" d="M747.9725,-181.5769C758.6374,-175.0538 771.3685,-167.0951 782.6095,-159.6 793.2916,-152.4775 795.5924,-150.1641 806.1095,-142.8 815.9772,-135.8906 826.9596,-128.3385 836.3186,-121.9437"/>
<text text-anchor="middle" x="825.8595" y="-147" font-family="Times,serif" font-size="14.00" fill="#000000">528.72</text>
</g>
<!-- Abilene -->
<g id="node12" class="node">
<title>Abilene</title>
<ellipse fill="none" stroke="#000000" cx="399.6095" cy="-106.8" rx="41.7114" ry="18"/>
<text text-anchor="middle" x="399.6095" y="-102.6" font-family="Times,serif" font-size="14.00" fill="#000000">Abilene</text>
</g>
<!-- Austin&#45;&#45;Abilene -->
<g id="edge9" class="edge">
<title>Austin--Abilene</title>
<path fill="none" stroke="#000000" d="M688.0727,-193.4531C624.493,-189.2658 496.4345,-178.7037 456.1095,-159.6 453.698,-158.4576 432.4868,-138.3663 416.7588,-123.3048"/>
<text text-anchor="middle" x="475.8595" y="-147" font-family="Times,serif" font-size="14.00" fill="#000000">190.57</text>
</g>
<!-- Big Spring -->
<g id="node13" class="node">
<title>Big Spring</title>
<ellipse fill="none" stroke="#000000" cx="212.6095" cy="-106.8" rx="53.311" ry="18"/>
<text text-anchor="middle" x="212.6095" y="-102.6" font-family="Times,serif" font-size="14.00" fill="#000000">Big Spring</text>
</g>
<!-- Austin&#45;&#45;Big Spring -->
<g id="edge10" class="edge">
<title>Austin--Big Spring</title>
<path fill="none" stroke="#000000" d="M687.8004,-194.0978C613.5051,-190.6556 448.2595,-180.8066 396.1095,-159.6 384.8759,-155.0319 385.6561,-147.8032 374.6095,-142.8 335.4638,-125.0704 321.5011,-134.3816 279.6095,-124.8 271.1558,-122.8664 262.1575,-120.5967 253.5896,-118.3328"/>
<text text-anchor="middle" x="415.8595" y="-147" font-family="Times,serif" font-size="14.00" fill="#000000">259.34</text>
</g>
<!-- Laredo -->
<g id="node14" class="node">
<title>Laredo</title>
<ellipse fill="none" stroke="#000000" cx="955.6095" cy="-106.8" rx="38.2626" ry="18"/>
<text text-anchor="middle" x="955.6095" y="-102.6" font-family="Times,serif" font-size="14.00" fill="#000000">Laredo</text>
</g>
<!-- Austin&#45;&#45;Laredo -->
<g id="edge11" class="edge">
<title>Austin--Laredo</title>
<path fill="none" stroke="#000000" d="M757.402,-187.2163C781.7814,-180.6348 815.6869,-170.7425 844.6095,-159.6 874.6785,-148.0158 907.8941,-131.7274 930.0828,-120.3146"/>
<text text-anchor="middle" x="898.3595" y="-147" font-family="Times,serif" font-size="14.00" fill="#000000">218.7</text>
</g>
<!-- Dallas -->
<g id="node2" class="node">
<title>Dallas</title>
<ellipse fill="none" stroke="#000000" cx="913.6095" cy="-284.4" rx="35.9096" ry="18"/>
<text text-anchor="middle" x="913.6095" y="-280.2" font-family="Times,serif" font-size="14.00" fill="#000000">Dallas</text>
</g>
<!-- Fort Worth -->
<g id="node3" class="node">
<title>Fort Worth</title>
<ellipse fill="none" stroke="#000000" cx="334.6095" cy="-195.6" rx="54.434" ry="18"/>
<text text-anchor="middle" x="334.6095" y="-191.4" font-family="Times,serif" font-size="14.00" fill="#000000">Fort Worth</text>
</g>
<!-- Dallas&#45;&#45;Fort Worth -->
<g id="edge12" class="edge">
<title>Dallas--Fort Worth</title>
<path fill="none" stroke="#000000" d="M879.1243,-279.1111C780.7693,-264.0266 498.6051,-220.7517 383.9434,-203.1662"/>
<text text-anchor="middle" x="688.8595" y="-235.8" font-family="Times,serif" font-size="14.00" fill="#000000">36.7</text>
</g>
<!-- Dallas&#45;&#45;Corpus Christi -->
<g id="edge13" class="edge">
<title>Dallas--Corpus Christi</title>
<path fill="none" stroke="#000000" d="M939.6788,-272.0672C975.6922,-253.4289 1039.3053,-214.357 1066.6095,-159.6 1072.0017,-148.7861 1075.2517,-135.5861 1077.1536,-125.0896"/>
<text text-anchor="middle" x="1072.8595" y="-191.4" font-family="Times,serif" font-size="14.00" fill="#000000">345.42</text>
</g>
<!-- Dallas&#45;&#45;San Marcos -->
<g id="edge14" class="edge">
<title>Dallas--San Marcos</title>
<path fill="none" stroke="#000000" d="M945.1675,-275.7151C982.8387,-264.5701 1046.9697,-243.095 1096.6095,-213.6 1139.7513,-187.9659 1182.79,-147.4708 1205.7064,-124.4112"/>
<text text-anchor="middle" x="1164.8595" y="-191.4" font-family="Times,serif" font-size="14.00" fill="#000000">210.87</text>
</g>
<!-- Dallas&#45;&#45;Wichita Falls -->
<g id="edge15" class="edge">
<title>Dallas--Wichita Falls</title>
<path fill="none" stroke="#000000" d="M877.9484,-283.2006C763.0933,-279.2034 403.6239,-265.6098 288.6095,-248.4 224.1327,-238.7523 199.043,-251.6575 146.1095,-213.6 114.7651,-191.0644 94.6149,-149.0356 85.082,-124.9683"/>
<text text-anchor="middle" x="165.8595" y="-191.4" font-family="Times,serif" font-size="14.00" fill="#000000">125.47</text>
</g>
<!-- Dallas&#45;&#45;Baytown -->
<g id="edge16" class="edge">
<title>Dallas--Baytown</title>
<path fill="none" stroke="#000000" d="M948.542,-279.9383C1059.7322,-264.4274 1392.1813,-207.2167 1288.6095,-88.8 1257.0441,-52.7104 929.6443,-28.5691 807.3512,-20.751"/>
<text text-anchor="middle" x="1324.8595" y="-147" font-family="Times,serif" font-size="14.00" fill="#000000">235.81</text>
</g>
<!-- Dallas&#45;&#45;College Station -->
<g id="edge17" class="edge">
<title>Dallas--College Station</title>
<path fill="none" stroke="#000000" d="M877.9204,-283.5701C739.5456,-280.2284 242.755,-267.0364 174.6095,-248.4 85.1956,-223.9472 45.0191,-209.1652 6.6095,-124.8 -.0202,-110.2382 -3.7624,-100.983 6.6095,-88.8 30.3588,-60.9034 260.7131,-35.368 377.473,-24.0913"/>
<text text-anchor="middle" x="44.8595" y="-147" font-family="Times,serif" font-size="14.00" fill="#000000">151.05</text>
</g>
<!-- Dallas&#45;&#45;El Paso -->
<g id="edge18" class="edge">
<title>Dallas--El Paso</title>
<path fill="none" stroke="#000000" d="M915.881,-266.2344C918.5407,-238.0927 920.26,-183.0146 899.6095,-142.8 895.4555,-134.7106 888.6513,-127.6257 881.7688,-121.9296"/>
<text text-anchor="middle" x="936.8595" y="-191.4" font-family="Times,serif" font-size="14.00" fill="#000000">570.11</text>
</g>
<!-- Dallas&#45;&#45;Big Spring -->
<g id="edge19" class="edge">
<title>Dallas--Big Spring</title>
<path fill="none" stroke="#000000" d="M877.8615,-283.8234C754.6566,-281.3554 348.9296,-269.0995 233.1095,-213.6 202.6424,-199.0006 192.4655,-190.8427 179.6095,-159.6 174.3442,-146.8045 182.5942,-133.6045 192.1605,-123.6033"/>
<text text-anchor="middle" x="252.8595" y="-191.4" font-family="Times,serif" font-size="14.00" fill="#000000">274.98</text>
</g>
<!-- Dallas&#45;&#45;Laredo -->
<g id="edge20" class="edge">
<title>Dallas--Laredo</title>
<path fill="none" stroke="#000000" d="M927.5105,-267.5717C945.335,-244.7782 975.2925,-202.0441 986.6095,-159.6 988.5331,-152.3854 989.208,-149.7999 986.6095,-142.8 983.8539,-135.377 978.8056,-128.4587 973.5717,-122.7105"/>
<text text-anchor="middle" x="998.8595" y="-191.4" font-family="Times,serif" font-size="14.00" fill="#000000">398.24</text>
</g>
<!-- Fort Worth&#45;&#45;Houston -->
<g id="edge21" class="edge">
<title>Fort Worth--Houston</title>
<path fill="none" stroke="#000000" d="M386.5517,-190.0733C430.5268,-184.6443 494.9459,-174.9173 549.6095,-159.6 586.21,-149.3441 626.5433,-132.3202 652.8735,-120.3824"/>
<text text-anchor="middle" x="614.3595" y="-147" font-family="Times,serif" font-size="14.00" fill="#000000">189.9</text>
</g>
<!-- Fort Worth&#45;&#45;Amarillo -->
<g id="edge22" class="edge">
<title>Fort Worth--Amarillo</title>
<path fill="none" stroke="#000000" d="M386.8117,-190.6284C428.9739,-185.4809 483.6673,-175.8577 498.6095,-159.6 507.0568,-150.409 508.5415,-136.2284 508.0578,-124.8766"/>
<text text-anchor="middle" x="526.8595" y="-147" font-family="Times,serif" font-size="14.00" fill="#000000">308.36</text>
</g>
<!-- Fort Worth&#45;&#45;Wichita Falls -->
<g id="edge23" class="edge">
<title>Fort Worth--Wichita Falls</title>
<path fill="none" stroke="#000000" d="M283.8055,-189.1497C235.221,-182.4453 165.8103,-171.3104 141.1095,-159.6 123.1404,-151.081 106.133,-136.0887 94.4094,-124.251"/>
<text text-anchor="middle" x="160.8595" y="-147" font-family="Times,serif" font-size="14.00" fill="#000000">104.42</text>
</g>
<!-- Fort Worth&#45;&#45;College Station -->
<g id="edge24" class="edge">
<title>Fort Worth--College Station</title>
<path fill="none" stroke="#000000" d="M322.9651,-177.6975C310.0718,-155.3938 293.1992,-116.8115 310.1095,-88.8 328.1797,-58.8671 363.5752,-40.953 393.5209,-30.635"/>
<text text-anchor="middle" x="329.8595" y="-102.6" font-family="Times,serif" font-size="14.00" fill="#000000">158.35</text>
</g>
<!-- Fort Worth&#45;&#45;Abilene -->
<g id="edge25" class="edge">
<title>Fort Worth--Abilene</title>
<path fill="none" stroke="#000000" d="M330.8747,-177.2421C329.6718,-166.4707 329.9626,-153.0146 336.1095,-142.8 342.9051,-131.5074 354.6592,-123.4487 366.2216,-117.86"/>
<text text-anchor="middle" x="355.8595" y="-147" font-family="Times,serif" font-size="14.00" fill="#000000">141.23</text>
</g>
<!-- Fort Worth&#45;&#45;Big Spring -->
<g id="edge26" class="edge">
<title>Fort Worth--Big Spring</title>
<path fill="none" stroke="#000000" d="M282.8962,-189.7543C245.2978,-184.3148 198.9938,-174.7337 187.1095,-159.6 178.6847,-148.8717 186.0663,-134.9081 195.0152,-124.0356"/>
<text text-anchor="middle" x="206.8595" y="-147" font-family="Times,serif" font-size="14.00" fill="#000000">243.89</text>
</g>
<!-- Houston&#45;&#45;Baytown -->
<g id="edge27" class="edge">
<title>Houston--Baytown</title>
<path fill="none" stroke="#000000" d="M694.4251,-89.1343C702.3193,-78.6082 712.8609,-65.167 723.1095,-54 729.1732,-47.3929 736.2364,-40.5687 742.6452,-34.6619"/>
<text text-anchor="middle" x="735.8595" y="-58.2" font-family="Times,serif" font-size="14.00" fill="#000000">25.8</text>
</g>
<!-- Houston&#45;&#45;College Station -->
<g id="edge28" class="edge">
<title>Houston--College Station</title>
<path fill="none" stroke="#000000" d="M661.7207,-90.7382C646.1986,-78.9562 623.64,-63.4285 601.6095,-54 571.5301,-41.1268 536.1514,-32.5009 506.6002,-26.929"/>
<text text-anchor="middle" x="648.3595" y="-58.2" font-family="Times,serif" font-size="14.00" fill="#000000">85.72</text>
</g>
</g>
</svg>